<svg xmlns="http://www.w3.org/2000/svg" width="661" height="661" viewBox="0 0 661 661">
  <g id="Group_2" data-name="Group 2" transform="translate(-1074 -3254)">
    <rect id="Rectangle_22" data-name="Rectangle 22" width="661" height="661" rx="115" transform="translate(1074 3254)"/>
    <path id="Path_1" data-name="Path 1" d="M0,26.968A26.939,26.939,0,0,1,26.968,0H134.841a26.939,26.939,0,0,1,26.968,26.968V350.586A80.9,80.9,0,0,1,0,350.586ZM188.44,358.929c.253-2.781.337-5.562.337-8.343v-220.8L252.32,66.24a27.009,27.009,0,0,1,38.177,0l76.269,76.269a27.009,27.009,0,0,1,0,38.177ZM154.055,431.49,315.864,269.681h88.658a26.939,26.939,0,0,1,26.968,26.968V404.522a26.939,26.939,0,0,1-26.968,26.968ZM107.872,53.936H53.936v53.936h53.936ZM53.936,161.809v53.936h53.936V161.809Zm26.968,209a20.226,20.226,0,1,0-20.226-20.226A20.226,20.226,0,0,0,80.9,370.812Z" transform="translate(1188.755 3368.755)" fill="#fff"/>
  </g>
</svg>
